<svg xmlns="http://www.w3.org/2000/svg" width="1em" height="1em" fill="none" viewBox="0 0 86 86" class="w-24 h-24"><g fill="#2D3141" clip-path="url(#qr_svg__a)"><path d="M23.452 0h-2.604v2.604h2.604z"></path><path d="M41.696 0v2.604h-5.212v2.608h-7.82v5.212h-5.212v2.604h-2.604V5.212h2.604V2.604h2.608V0h2.604v2.604h2.608V0zM0 0v18.24h18.24V0zm15.636 15.636H2.604V2.604h13.032zM67.756 0v18.24H86V0zm15.636 15.636H70.361V2.604h13.031zM41.696 7.817H44.3V2.603h-2.604v5.213M59.936 2.604v2.608h2.608v2.604h-5.212V5.212h-2.608V2.604h-7.816V0h15.636v2.604z"></path><path d="M80.788 5.212h-7.82v7.816h7.82zM36.484 7.816v5.212h2.604v-2.604h2.608V7.816h-5.212M57.332 7.816h-2.608v2.608h2.608zM65.148 7.816h-2.604v2.608h2.604zM13.028 5.212H5.212v7.816h7.816zM59.936 10.424h-2.604v2.604h2.604zM36.484 13.028h-2.608v2.608h2.608zM23.452 15.636h-2.604v2.604h2.604zM39.088 15.636h-2.604v2.604h2.604zM65.148 15.636v-2.608h-2.604v7.82h2.604v-5.212M57.332 20.848v2.604h2.604v-7.816h-2.604v5.212M18.24 20.848h-2.604v2.604h2.604zM23.452 20.848h-2.604v2.604h2.604zM86 20.848h-2.608v2.604H86zM15.636 23.452h-2.608v2.608h2.608zM20.848 23.452H18.24v2.608h2.608zM72.968 23.452H70.36v2.608h2.608zM18.24 26.06h-2.604v2.604h2.604z"></path><path d="M72.968 28.668H70.36V26.06h-2.604v-5.212h-2.608v5.212h-7.816v-2.608H52.12v2.608h2.604v2.608h5.212v2.607h5.212v-2.607h2.608v2.607h2.604v2.6h-2.604v2.609h7.82V26.06h-2.608z"></path><path d="M80.788 26.06v-5.212h-7.82v2.604h2.608v2.608h2.604v2.608h5.212v2.607H86V26.06h-5.212M41.696 31.275H44.3V26.06h-2.604v5.215M49.512 28.668h-2.604v2.608h2.604zM10.424 33.876v2.608h2.604v-5.208h2.608v-2.608h-2.608V26.06H5.212v-2.608h5.212v-2.604H0v2.604h2.604v2.608H0v2.608h10.424v2.607H5.212v2.6h5.212"></path><path d="M52.12 13.028v-2.604h-2.608V5.212h-2.604v5.212h-5.212v2.604h-2.608v2.608h2.608v2.604h-2.608v5.212h-2.604v-2.604h-2.608v-5.212h-2.604v5.212h-2.608v-5.212h2.608v-2.608h2.604V7.816h-2.604v2.608h-2.608v2.604H26.06V26.06h-2.608v7.816h-2.604v-2.604h-5.212v2.604h2.604v2.608h-5.212v2.604h5.212v2.608h2.608V44.3H18.24v2.608h2.608v2.604h2.604v-2.604h5.212V44.3H26.06v-2.604h5.212v-5.212h2.604v-5.212h-2.604v2.604h-2.608v5.212H26.06v-5.212h2.604v-5.212h7.82V26.06h5.212v-5.212h5.212v2.604h5.212v-2.604h2.604v-5.212h2.608v-2.608zm-28.668 26.06h-2.604v-2.604h2.604zm7.82-13.028h-2.608v-2.608h2.608zm20.848-7.82h-2.608v-2.604h-2.604v2.604H44.3v-2.604h2.608v-2.608h2.604v2.608h2.608z"></path><path d="M36.484 31.275v5.209h2.604v-2.608h2.608v-2.6h-5.212M57.332 31.275h-2.608v2.605h2.608zM78.18 31.275v2.6h5.212v-2.6H78.18M5.212 33.876H2.604v2.608h2.608zM65.148 33.876h-2.604v2.608h2.604zM86 33.876h-2.608v2.608H86zM36.484 36.484h-2.608v2.605h2.608zM78.18 39.089V44.3h2.608v2.607h2.604V44.3H86V39.09h-5.212v-2.605h-5.212v2.605zM7.816 39.089v-2.605H5.212v5.212h5.212V39.09z"></path><path d="M36.484 41.696v5.212h-2.608v7.816h5.212v-5.212h2.608v-2.604h-2.608V44.3h2.608v-2.604h-2.608v-2.608h-2.604zM2.604 44.3H0v2.608h5.212v-5.212H2.604zM33.876 41.696h-2.604V44.3h2.604z"></path><path d="M44.3 44.3h-2.604v2.608H44.3zM86 46.908h-2.608v2.604H86zM31.272 49.513h-2.608v2.608h2.608zM72.968 49.513H70.36v2.608h2.608zM15.636 44.3v2.608h2.604v2.604h-2.604v2.608h-2.608v2.604h2.608v2.608h-2.608v2.605H7.816v2.607H18.24v2.605H5.212v-2.605H2.604v-2.607h2.608v-2.605h2.604v-2.608h2.608v-5.212h2.604v-2.604h-2.604v-5.212h7.816V44.3z"></path><path d="M18.24 54.724h2.608V52.12h-5.212v2.604zM28.664 52.12H26.06v2.604h2.604zM70.36 52.12h-2.604v2.604h2.605zM75.576 52.12h-2.608v2.604h2.608zM0 57.333h2.604v-7.82H0v7.82M23.452 54.725h-2.604v2.608h2.604zM18.24 57.332h-2.604v2.604h2.604zM44.3 57.332h-2.604v2.604H44.3z"></path><path d="M83.392 57.332v-2.608h-2.604v-5.212H78.18v-2.604h-2.604v-5.212h-2.608v-2.608H62.544v-2.604H52.12v-2.608H41.696v2.608h-2.608v2.604h2.608v2.608H44.3V44.3h2.608v-7.816h2.604v5.212h2.608v-2.608h7.816v2.608H52.12V44.3h-5.212v2.608H44.3v5.212h-2.604v2.604h5.212V52.12h2.604v2.604h5.212v2.608h-5.212v2.604h2.608v5.212h5.212v2.608h2.604v-5.212h-5.212v-2.608h5.212v-2.604h2.608v-2.608h-2.608v-5.212h2.608v5.212h2.604v-5.212h2.608V44.3h-2.608v-2.604h2.608V44.3h5.212v5.212h2.608v2.608h2.604v5.212h-5.212v-2.608H70.36v2.608h-5.212v2.604h-5.212v2.608h2.608v5.212h-2.608v2.604h2.608v2.608h-2.608V70.36h-2.604v-2.604h-2.608v5.212H52.12v5.212h2.604v-2.604h7.82v2.604h-5.212v2.608h2.604V86H78.18v-5.212h-5.212V78.18H70.36v2.608h-2.604v2.604h-2.608v-2.604h2.608V78.18h-2.608v-2.604h7.82v2.604h5.212v-2.604h-2.604v-2.608h2.604V70.36h-2.604v-2.604h2.604v-5.212h2.608v-2.608h2.604v2.608H86v-5.212zM62.544 46.908h-5.212v5.212H52.12v-2.608h-2.608v-2.604h5.212V44.3h7.82zm10.424 26.06h-7.82v-7.82h7.82zM41.696 59.936h-2.608v-2.604h-2.604v2.604h-7.82v-2.604H26.06v5.212h-2.608v-2.608H18.24v2.608h2.608v5.212h2.604v2.604h2.608v-5.212h2.604v2.608h2.608v-5.212h7.816v2.604h2.608v-5.212M2.604 62.544H0v2.604h2.604z"></path><path d="M36.484 65.148h-2.608v2.608h2.608zM52.12 65.148h-2.608v2.608h2.608zM86 65.148h-2.608v2.608H86zM0 67.756V86h18.24V67.756zm15.636 15.636H2.604V70.36h13.032zM39.088 67.756h-2.604v2.604h2.604zM46.908 67.756v-2.608h2.604v-5.211h-2.604v2.607H44.3v2.605h-2.604v2.607H44.3v2.605h-2.604v5.215H44.3v-2.608h2.608v-5.212M70.36 67.756h-2.604v2.604h2.605zM80.788 67.756H78.18v2.604h2.608zM28.664 70.36H26.06v5.216h5.212v-2.608h-2.608zM31.272 72.968h5.212V70.36h-2.608v-2.604h-2.604v5.212M52.12 70.36h-2.608v2.608h2.608zM86 70.36h-2.608v2.608H86zM49.512 72.968h-2.604v5.212h2.604v-5.212M80.788 72.968H78.18v2.608h2.608z"></path><path d="M13.028 72.968H5.212v7.82h7.816zM41.696 78.18v2.608h5.212V78.18h-5.212M33.876 78.18v5.212h2.608V86H20.848V75.576h5.212v2.604h-2.608v2.608h2.608v2.604h5.212v-2.604H26.06V78.18h5.212v-2.604h5.212v2.604zM41.696 80.788h-2.608v2.604h2.608zM83.392 80.788h-2.604v2.604h2.604zM44.3 83.393h-2.604V86H44.3zM56.963 83.392V86H46.908v-2.608h2.604V78.18h2.608v5.212z"></path></g><defs><clipPath id="qr_svg__a"><path fill="#fff" d="M0 0h86v86H0z"></path></clipPath></defs></svg> 