<svg xmlns="http://www.w3.org/2000/svg" width="24" height="24" viewBox="0 0 24 24" fill="currentColor">
  <path d="M12 2.163c3.204 0 3.584.012 4.85.07 1.17.056 1.97.24 2.427.403a4.92 4.92 0 0 1 1.78 1.154 4.92 4.92 0 0 1 1.154 1.78c.163.457.347 1.257.403 2.427.058 1.266.07 1.646.07 4.85s-.012 3.584-.07 4.85c-.056 1.17-.24 1.97-.403 2.427a4.92 4.92 0 0 1-1.154 1.78 4.92 4.92 0 0 1-1.78 1.154c-.457.163-1.257.347-2.427.403-1.266.058-1.646.07-4.85.07s-3.584-.012-4.85-.07c-1.17-.056-1.97-.24-2.427-.403a4.92 4.92 0 0 1-1.78-1.154 4.92 4.92 0 0 1-1.154-1.78c-.163-.457-.347-1.257-.403-2.427C2.175 15.747 2.163 15.367 2.163 12s.012-3.584.07-4.85c.056-1.17.24-1.97.403-2.427a4.92 4.92 0 0 1 1.154-1.78 4.92 4.92 0 0 1 1.78-1.154c.457-.163 1.257-.347 2.427-.403C8.416 2.175 8.796 2.163 12 2.163zm0 1.687c-3.17 0-3.548.012-4.795.07-1.036.048-1.602.218-1.975.363-.497.193-.853.423-1.226.796-.373.373-.603.729-.796 1.226-.145.373-.315.939-.363 1.975-.058 1.247-.07 1.625-.07 4.795s.012 3.548.07 4.795c.048 1.036.218 1.602.363 1.975.193.497.423.853.796 1.226.373.373.729.603 1.226.796.373.145.939.315 1.975.363 1.247.058 1.625.07 4.795.07s3.548-.012 4.795-.07c1.036-.048 1.602-.218 1.975-.363.497-.193.853-.423 1.226-.796.373-.373.603-.729.796-1.226.145-.373.315-.939.363-1.975.058-1.247.07-1.625.07-4.795s-.012-3.548-.07-4.795c-.048-1.036-.218-1.602-.363-1.975a3.274 3.274 0 0 0-.796-1.226 3.274 3.274 0 0 0-1.226-.796c-.373-.145-.939-.315-1.975-.363-1.247-.058-1.625-.07-4.795-.07zm0 3.891a5.946 5.946 0 1 1 0 11.892 5.946 5.946 0 0 1 0-11.892zm0 9.79a3.844 3.844 0 1 0 0-7.688 3.844 3.844 0 0 0 0 7.688zm6.406-10.897a1.44 1.44 0 1 1 0-2.88 1.44 1.44 0 0 1 0 2.88z"/>
</svg>
