<svg xmlns="http://www.w3.org/2000/svg" width="24" height="24" viewBox="0 0 24 24" fill="currentColor">
  <path d="M12.04 2.04c-5.522 0-10 4.478-10 10 0 4.228 2.623 7.828 6.35 9.355-.088-.795-.168-2.015.035-2.884.183-.79 1.178-5.037 1.178-5.037s-.3-.6-.3-1.484c0-1.39.806-2.428 1.81-2.428.854 0 1.267.64 1.267 1.406 0 .856-.544 2.136-.826 3.322-.235.998.5 1.812 1.482 1.812 1.777 0 3.14-1.872 3.14-4.568 0-2.39-1.72-4.06-4.178-4.06-2.847 0-4.517 2.135-4.517 4.343 0 .859.33 1.782.742 2.283.082.1.094.188.07.288-.077.315-.252.998-.285 1.137-.045.188-.148.23-.344.14-1.283-.598-2.083-2.47-2.083-3.974 0-3.233 2.347-6.198 6.768-6.198 3.554 0 6.312 2.534 6.312 5.92 0 3.528-2.221 6.372-5.304 6.372-1.036 0-2.012-.537-2.345-1.17l-.638 2.43c-.23.867-.855 1.955-1.273 2.618.957.295 1.968.455 3.023.455 5.522 0 10-4.478 10-10s-4.478-10-10-10z"/>
</svg>
